<svg width="25" height="29" viewBox="0 0 25 29" fill="none" xmlns="http://www.w3.org/2000/svg">
<path d="M0.5 25.5239C0.5 26.9435 1.65179 28.0953 3.07143 28.0953H21.9286C23.3482 28.0953 24.5 26.9435 24.5 25.5239V10.9525H0.5V25.5239ZM17.6429 15.0239C17.6429 14.6703 17.9321 14.381 18.2857 14.381H20.4286C20.7821 14.381 21.0714 14.6703 21.0714 15.0239V17.1667C21.0714 17.5203 20.7821 17.8096 20.4286 17.8096H18.2857C17.9321 17.8096 17.6429 17.5203 17.6429 17.1667V15.0239ZM17.6429 21.881C17.6429 21.5275 17.9321 21.2382 18.2857 21.2382H20.4286C20.7821 21.2382 21.0714 21.5275 21.0714 21.881V24.0239C21.0714 24.3775 20.7821 24.6667 20.4286 24.6667H18.2857C17.9321 24.6667 17.6429 24.3775 17.6429 24.0239V21.881ZM10.7857 15.0239C10.7857 14.6703 11.075 14.381 11.4286 14.381H13.5714C13.925 14.381 14.2143 14.6703 14.2143 15.0239V17.1667C14.2143 17.5203 13.925 17.8096 13.5714 17.8096H11.4286C11.075 17.8096 10.7857 17.5203 10.7857 17.1667V15.0239ZM10.7857 21.881C10.7857 21.5275 11.075 21.2382 11.4286 21.2382H13.5714C13.925 21.2382 14.2143 21.5275 14.2143 21.881V24.0239C14.2143 24.3775 13.925 24.6667 13.5714 24.6667H11.4286C11.075 24.6667 10.7857 24.3775 10.7857 24.0239V21.881ZM3.92857 15.0239C3.92857 14.6703 4.21786 14.381 4.57143 14.381H6.71429C7.06786 14.381 7.35714 14.6703 7.35714 15.0239V17.1667C7.35714 17.5203 7.06786 17.8096 6.71429 17.8096H4.57143C4.21786 17.8096 3.92857 17.5203 3.92857 17.1667V15.0239ZM3.92857 21.881C3.92857 21.5275 4.21786 21.2382 4.57143 21.2382H6.71429C7.06786 21.2382 7.35714 21.5275 7.35714 21.881V24.0239C7.35714 24.3775 7.06786 24.6667 6.71429 24.6667H4.57143C4.21786 24.6667 3.92857 24.3775 3.92857 24.0239V21.881ZM21.9286 4.09532H19.3571V1.52389C19.3571 1.05246 18.9714 0.666748 18.5 0.666748H16.7857C16.3143 0.666748 15.9286 1.05246 15.9286 1.52389V4.09532H9.07143V1.52389C9.07143 1.05246 8.68571 0.666748 8.21429 0.666748H6.5C6.02857 0.666748 5.64286 1.05246 5.64286 1.52389V4.09532H3.07143C1.65179 4.09532 0.5 5.24711 0.5 6.66675V9.23818H24.5V6.66675C24.5 5.24711 23.3482 4.09532 21.9286 4.09532Z" fill="#74A3FC"/>
</svg>
