<svg width="178" height="108" viewBox="0 0 178 108" fill="none" xmlns="http://www.w3.org/2000/svg">
<path fill-rule="evenodd" clip-rule="evenodd" d="M25.2833 49.5498C26.5503 49.5498 27.8173 49.5498 29.0843 49.5498C29.0843 45.9597 29.0843 42.3703 29.0843 38.7803C32.8378 18.0275 45.0852 5.46261 65.8273 1.08703C87.0913 -0.319974 102.507 8.44323 112.073 27.3773C127.957 19.679 141.788 22.4239 153.567 35.6128C158.666 43.1039 160.356 51.3394 158.635 60.3193C157.91 62.1767 157.382 64.0772 157.051 66.0208C171.523 67.9333 178.175 76.1688 177.007 90.7273C175.065 99.2149 169.891 104.6 161.486 106.882C115.24 107.304 68.9948 107.304 22.7493 106.882C4.88839 100.831 -2.39686 88.4777 0.893538 69.8218C5.11708 58.3086 13.2474 51.5516 25.2833 49.5498Z" fill="#E2EBED"/>
</svg>
