<svg width="84" height="192" viewBox="0 0 84 192" fill="none" xmlns="http://www.w3.org/2000/svg">
<path fill-rule="evenodd" clip-rule="evenodd" d="M37.8324 0.791305C47.4818 -0.20329 53.922 3.80677 57.1541 12.8278C57.4709 45.9789 57.5767 79.1362 57.4709 112.287C71.9666 118.242 80.5189 129.012 83.1276 144.596C84.3465 168.675 73.4718 184.196 50.5024 191.158C28.188 194.383 12.2453 185.83 2.67312 165.501C-4.1503 141.409 3.4517 123.462 25.4791 111.654C25.6901 78.7118 25.9017 45.7698 26.1126 12.8278C28.0239 6.79688 31.9307 2.78683 37.8324 0.791305Z" fill="#FCFDFD"/>
<path fill-rule="evenodd" clip-rule="evenodd" d="M49.8688 101.518C44.3783 101.518 38.8884 101.518 33.3978 101.518C33.292 72.3767 33.3978 43.2357 33.7146 14.0947C37.0018 8.14617 41.5415 6.98054 47.3348 10.6105C48.0741 11.7698 48.8128 12.9354 49.5521 14.0947C49.8688 43.2357 49.9746 72.3767 49.8688 101.518Z" fill="#B9D6FE"/>
<path fill-rule="evenodd" clip-rule="evenodd" d="M33.3979 101.518C38.8885 101.518 44.3784 101.518 49.8689 101.518C49.8689 106.795 49.8689 112.078 49.8689 117.355C61.0546 120.624 68.9734 127.593 73.6252 138.261C78.8535 157.469 72.8352 171.931 55.5704 181.656C34.5978 188.396 19.288 181.953 9.64168 162.334C4.35132 140.396 12.1649 125.192 33.0812 116.722C33.3979 111.66 33.5031 106.592 33.3979 101.518Z" fill="#3798DB"/>
<path fill-rule="evenodd" clip-rule="evenodd" d="M40.3662 134.46C42.1558 134.194 43.528 134.827 44.4839 136.36C44.6949 139.319 44.9065 142.271 45.1174 145.229C47.8022 142.303 51.0755 140.934 54.9367 141.112C55.8952 142.961 55.6842 144.646 54.3032 146.18C51.868 147.713 49.5456 149.404 47.3347 151.248C49.9745 153.04 52.6137 154.839 55.2534 156.632C56.3101 160.427 54.938 162.011 51.1357 161.384C49.1845 159.933 47.1782 158.558 45.1174 157.266C44.9065 160.224 44.6949 163.176 44.4839 166.135C42.5834 167.826 40.6829 167.826 38.7824 166.135C38.5715 163.176 38.3599 160.224 38.1489 157.266C35.7549 159.033 33.2209 160.516 30.5469 161.7C28.7522 161.593 27.802 160.642 27.6962 158.85C28.0066 157.266 28.8511 155.999 30.2302 155.049C32.2397 153.94 34.1402 152.673 35.9317 151.248C33.2355 149.315 30.5957 147.313 28.0129 145.229C26.8517 141.321 28.2239 139.952 32.1307 141.112C34.3017 142.252 36.308 143.62 38.1489 145.229C38.3599 142.271 38.5715 139.319 38.7824 136.36C39.4445 135.809 39.9722 135.176 40.3662 134.46Z" fill="#F9FCFD"/>
</svg>
