<svg width="217" height="119" viewBox="0 0 217 119" fill="none" xmlns="http://www.w3.org/2000/svg">
<path fill-rule="evenodd" clip-rule="evenodd" d="M176.143 89.0573C172.089 81.5358 165.754 77.418 157.138 76.704C162.276 63.0509 159.533 51.2259 148.903 41.228C137.341 32.7252 125.197 31.775 112.477 38.3773C109.005 31.0015 104.038 24.8774 97.5894 20.0058C108.131 2.70554 123.126 -2.8908 142.568 3.21804C151.893 6.94556 158.646 13.3864 162.84 22.5398C175.725 16.0426 187.021 18.1541 196.732 28.8748C200.375 33.5266 201.958 38.8055 201.483 44.7123C201.566 48.1725 201.141 51.5509 200.216 54.8483C212.399 56.574 217.783 63.5425 216.371 75.7538C214.533 82.8705 209.991 87.1992 202.75 88.7405C193.881 89.0573 185.012 89.1631 176.143 89.0573Z" fill="#B9D6FE"/>
<path fill-rule="evenodd" clip-rule="evenodd" d="M97.5892 20.0058C104.038 24.8774 109.005 31.0014 112.476 38.3773C125.197 31.775 137.341 32.7252 148.903 41.228C159.533 51.2259 162.276 63.0508 157.138 76.704C165.754 77.418 172.089 81.5357 176.143 89.0573C180.508 103.661 175.44 113.269 160.939 117.882C115.118 118.304 69.2908 118.304 23.4697 117.882C4.62945 111.778 -2.6558 99.0026 1.61399 79.5548C6.76434 67.3257 15.9501 60.9907 29.1712 60.5498C27.9422 42.203 34.9107 27.9492 50.0767 17.7885C66.364 9.31991 82.2015 10.0592 97.5892 20.0058Z" fill="#E2EBED"/>
</svg>
