<svg width="84" height="192" viewBox="0 0 84 192" fill="none" xmlns="http://www.w3.org/2000/svg">
<path fill-rule="evenodd" clip-rule="evenodd" d="M37.1989 0.847318C47.1011 -0.381672 53.7529 3.62838 57.1541 12.8838C57.3651 45.8258 57.5767 78.7678 57.7876 111.71C76.0641 120.807 84.5112 135.586 83.1276 156.055C79.1321 174.832 67.8349 186.552 49.2354 191.214C26.7043 193.887 11.0778 184.809 2.35638 163.974C-2.92511 146.666 0.875888 131.678 13.7594 118.995C17.3146 116.005 21.2214 113.572 25.4791 111.71C25.6901 78.7678 25.9017 45.8258 26.1126 12.8838C27.9675 7.1253 31.6634 3.10891 37.1989 0.847318Z" fill="#FDFCFC"/>
<path fill-rule="evenodd" clip-rule="evenodd" d="M49.8688 31.2553C44.3783 31.2553 38.8884 31.2553 33.3978 31.2553C33.2927 25.3384 33.3978 19.4279 33.7146 13.5173C36.9232 8.29092 41.2526 7.13162 46.7013 10.033C47.879 11.0213 48.8292 12.1806 49.5521 13.5173C49.8688 19.4279 49.974 25.3384 49.8688 31.2553Z" fill="#BAD7FE"/>
<path fill-rule="evenodd" clip-rule="evenodd" d="M33.3978 31.2552C38.8883 31.2552 44.3783 31.2552 49.8688 31.2552C49.763 59.7627 49.8688 88.2702 50.1855 116.778C66.0668 122.353 74.619 133.54 75.8423 150.353C74.8021 165.431 67.411 176.099 53.6698 182.345C34.1504 187.628 19.6857 181.395 10.275 163.657C3.6271 141.053 11.2291 125.431 33.081 116.778C33.3978 88.2702 33.5036 59.7627 33.3978 31.2552Z" fill="#E84131"/>
<path fill-rule="evenodd" clip-rule="evenodd" d="M46.7012 142.118C46.6765 142.916 46.9932 143.55 47.6514 144.018C47.7661 141.997 48.0829 140.097 48.6017 138.317C52.8652 145.089 54.8714 152.482 54.6199 160.489C54.2677 163.587 52.684 165.804 49.8687 167.141C44.3617 169.225 38.8711 169.225 33.3977 167.141C28.604 163.562 27.0203 158.811 28.6465 152.887C30.3221 147.851 32.3277 142.998 34.6647 138.317C35.1835 140.097 35.5003 141.997 35.615 144.018C36.0692 143.676 36.3859 143.252 36.5652 142.751C37.7619 138.526 39.4514 134.516 41.6332 130.715C43.6686 134.364 45.3582 138.165 46.7012 142.118Z" fill="#FEFBFB"/>
<path fill-rule="evenodd" clip-rule="evenodd" d="M34.6648 138.317C34.7028 137.975 34.9138 137.759 35.2983 137.683C35.7215 139.463 36.1434 141.149 36.5653 142.751C36.386 143.252 36.0693 143.676 35.615 144.018C35.5004 141.997 35.1836 140.097 34.6648 138.317Z" fill="#F49F97"/>
<path fill-rule="evenodd" clip-rule="evenodd" d="M48.6018 138.317C48.083 140.097 47.7662 141.997 47.6515 144.018C46.9933 143.55 46.6766 142.916 46.7013 142.118C47.1226 140.724 47.5451 139.248 47.9683 137.683C48.3528 137.759 48.5638 137.975 48.6018 138.317Z" fill="#F39E95"/>
</svg>
