<svg width="25" height="33" viewBox="0 0 25 33" fill="none" xmlns="http://www.w3.org/2000/svg">
<path d="M11.2668 32.0211C2.18563 18.8561 0.5 17.505 0.5 12.6667C0.5 6.03925 5.87256 0.666687 12.5 0.666687C19.1274 0.666687 24.5 6.03925 24.5 12.6667C24.5 17.505 22.8144 18.8561 13.7332 32.0211C13.1373 32.8819 11.8626 32.8819 11.2668 32.0211ZM12.5 17.6667C15.2614 17.6667 17.5 15.4281 17.5 12.6667C17.5 9.90525 15.2614 7.66669 12.5 7.66669C9.73856 7.66669 7.5 9.90525 7.5 12.6667C7.5 15.4281 9.73856 17.6667 12.5 17.6667Z" fill="#969696"/>
</svg>
