<svg width="35" height="31" viewBox="0 0 35 31" fill="none" xmlns="http://www.w3.org/2000/svg">
<path d="M18.7121 6.18182V0H15.6212V6.18182H18.7121ZM8.43484 10.4318L10.5985 8.26818L6.23256 3.86364L4.06893 6.06591L8.43484 10.4318ZM6.34847 18.5455V15.4545H0.166656V18.5455H6.34847ZM6.23256 30.0977L10.5985 25.7318L8.43484 23.5682L4.03029 27.8955L6.23256 30.0977ZM25.8985 10.4318L30.2644 6.06591L28.0621 3.86364L23.7348 8.26818L25.8985 10.4318ZM26.4394 27.8182H19.4848C18.8409 27.8182 18.2936 27.5928 17.8428 27.142C17.392 26.6913 17.1667 26.1439 17.1667 25.5C17.1667 24.8561 17.3856 24.3087 17.8235 23.858C18.2614 23.4072 18.8023 23.1818 19.4462 23.1818H21.4167L22.1894 21.3273C22.55 20.4773 23.1167 19.8011 23.8894 19.2989C24.6621 18.7966 25.5121 18.5455 26.4394 18.5455C27.7273 18.5455 28.822 18.9962 29.7235 19.8977C30.625 20.7992 31.0757 21.8939 31.0757 23.1818C31.0757 24.4697 30.625 25.5644 29.7235 26.4659C28.822 27.3674 27.7273 27.8182 26.4394 27.8182ZM26.4394 30.9091C28.5773 30.9091 30.3996 30.1557 31.9064 28.6489C33.4132 27.142 34.1667 25.3197 34.1667 23.1818C34.1667 21.0439 33.4132 19.2216 31.9064 17.7148C30.3996 16.208 28.5773 15.4545 26.4394 15.4545C24.8939 15.4545 23.4837 15.8731 22.2087 16.7102C20.9337 17.5473 19.9871 18.6742 19.3689 20.0909C17.875 20.0909 16.6193 20.6447 15.6019 21.7523C14.5845 22.8598 14.0757 24.1864 14.0757 25.7318C14.1273 27.2 14.6746 28.4299 15.7178 29.4216C16.761 30.4133 18.0167 30.9091 19.4848 30.9091H26.4394ZM14.0757 25.7318C14.2045 25.2167 14.3333 24.7144 14.4621 24.225C14.5909 23.7356 14.7197 23.2333 14.8485 22.7182C13.6894 22.2288 12.7557 21.4689 12.0473 20.4386C11.339 19.4083 10.9848 18.2621 10.9848 17C10.9848 15.3 11.5901 13.8447 12.8007 12.6341C14.0114 11.4235 15.4667 10.8182 17.1667 10.8182C18.7121 10.8182 20.0644 11.3205 21.2235 12.325C22.3826 13.3295 23.0651 14.6045 23.2712 16.15C23.7864 16.0212 24.3144 15.9053 24.8553 15.8023C25.3962 15.6992 25.9242 15.5833 26.4394 15.4545C26.0788 13.1879 25.0163 11.3333 23.2519 9.89091C21.4875 8.44849 19.4591 7.72727 17.1667 7.72727C14.5909 7.72727 12.4015 8.62879 10.5985 10.4318C8.79544 12.2348 7.89393 14.4242 7.89393 17C7.89393 18.9833 8.4606 20.767 9.59393 22.3511C10.7273 23.9352 12.2212 25.0621 14.0757 25.7318Z" fill="#74A3FC"/>
</svg>
