<svg width="192" height="122" viewBox="0 0 192 122" fill="none" xmlns="http://www.w3.org/2000/svg">
<path d="M127.352 6.59489C127.352 2.95275 124.4 0 120.758 0H6.62468C2.98254 0 0.0297852 2.95275 0.0297852 6.59489C0.0297852 10.237 2.98254 13.1898 6.62468 13.1898H120.758C124.4 13.1898 127.352 10.237 127.352 6.59489Z" fill="#E2EBED"/>
<path d="M184.625 27.0918H51.5861C47.944 27.0918 44.9912 30.0445 44.9912 33.6867C44.9912 37.3288 47.944 40.2816 51.5861 40.2816H184.625C188.267 40.2816 191.22 37.3288 191.22 33.6867C191.22 30.0445 188.267 27.0918 184.625 27.0918Z" fill="#E2EBED"/>
<path d="M153.497 67.3725C157.139 67.3725 160.092 64.4198 160.092 60.7776C160.092 57.1355 157.139 54.1827 153.497 54.1827H19.7668C16.1246 54.1827 13.1719 57.1355 13.1719 60.7776C13.1719 64.4198 16.1246 67.3725 19.7668 67.3725H153.497Z" fill="#E2EBED"/>
<path d="M175.402 81.2745H41.902C38.2599 81.2745 35.3071 84.2273 35.3071 87.8694C35.3071 91.5116 38.2599 94.4643 41.902 94.4643H175.402C179.044 94.4643 181.997 91.5116 181.997 87.8694C181.997 84.2273 179.044 81.2745 175.402 81.2745Z" fill="#E2EBED"/>
<path d="M110.612 108.367H22.0724C18.4303 108.367 15.4775 111.32 15.4775 114.962C15.4775 118.604 18.4303 121.557 22.0724 121.557H110.611C114.253 121.557 117.206 118.604 117.206 114.962C117.207 111.32 114.254 108.367 110.612 108.367Z" fill="#E2EBED"/>
</svg>
