<svg width="179" height="152" viewBox="0 0 179 152" fill="none" xmlns="http://www.w3.org/2000/svg">
<path fill-rule="evenodd" clip-rule="evenodd" d="M143.425 70.0298C136.662 67.6415 129.693 66.9003 122.519 67.8125C119.445 68.6614 116.488 69.8207 113.65 71.2968C111.549 68.7945 109.754 66.0451 108.266 63.0613C103.703 56.8276 97.8959 52.1778 90.8444 49.1243C85.8866 27.6803 93.2777 12.1596 113.017 2.56203C128.114 -2.25257 141.418 0.699543 152.927 11.431C135.687 5.00734 122.489 9.7586 113.334 25.6848C107.91 42.8083 113.084 55.586 128.854 64.0115C134.234 65.5699 139.724 65.9944 145.325 65.2785C148.101 64.2839 150.847 63.4351 153.561 62.7445C150.601 65.817 147.222 68.2496 143.425 70.0298Z" fill="#FCDA7B"/>
<path fill-rule="evenodd" clip-rule="evenodd" d="M90.8442 49.1243C97.8957 52.1778 103.702 56.8277 108.265 63.0613C109.754 66.0451 111.549 68.7945 113.65 71.2968C116.488 69.8208 119.445 68.6615 122.519 67.8126C129.693 66.9003 136.661 67.6415 143.425 70.0298C158.688 79.4943 163.545 92.7978 157.995 109.94C172.917 112.291 179.569 120.951 177.95 135.914C175.68 144.308 170.295 149.483 161.796 151.435C116.395 151.859 70.9948 151.859 25.5937 151.435C10.4214 147.773 2.18588 138.163 0.887207 122.61C2.3658 104.663 12.0793 94.9454 30.0282 93.4693C28.7162 72.9629 37.1633 58.0757 55.3682 48.8076C67.2527 44.1197 79.0782 44.2274 90.8442 49.1243Z" fill="#E2EBED"/>
</svg>
