<svg width="182" height="162" viewBox="0 0 182 162" fill="none" xmlns="http://www.w3.org/2000/svg">
<path fill-rule="evenodd" clip-rule="evenodd" d="M87.9313 -0.00488281C120.512 5.88667 147.86 21.0907 169.97 45.6071C174.372 50.8525 178.275 56.4463 181.689 62.3949C177.166 59.8229 172.307 57.7133 167.119 56.0599C160.518 54.6535 153.967 54.8689 147.48 56.6934C142.875 58.3658 138.44 60.3677 134.177 62.7116C127.234 58.2835 119.632 55.7495 111.371 55.1096C105.644 55.2236 100.367 56.8074 95.5333 59.8609C95.0075 89.9078 94.6907 119.999 94.583 150.135C92.4545 157.166 87.7032 160.967 80.3293 161.538C69.224 159.605 64.6818 153.055 66.709 141.899C68.5905 139.625 70.7001 139.409 73.0441 141.266C73.7219 144.414 74.3554 147.582 74.9445 150.768C77.6052 153.435 80.6651 153.967 84.1303 152.352C85.5937 151.313 86.5439 149.945 86.981 148.234C87.4055 118.884 87.4055 89.5277 86.981 60.1776C78.0677 54.6155 68.6666 53.6652 58.7903 57.3269C55.002 58.7966 51.41 60.5957 48.0208 62.7116C43.7573 60.3677 39.3228 58.3658 34.7173 56.6934C28.0085 54.9196 21.2491 54.7042 14.4453 56.0599C9.3773 57.5423 4.72741 59.6581 0.508301 62.3949C16.2064 37.416 37.7454 19.2535 65.1253 7.91387C72.6956 4.93642 80.2976 2.29472 87.9313 -0.00488281Z" fill="#81B5FE"/>
</svg>
