<svg width="106" height="133" viewBox="0 0 106 133" fill="none" xmlns="http://www.w3.org/2000/svg">
<path fill-rule="evenodd" clip-rule="evenodd" d="M92.4319 0.565674C93.2301 1.20551 93.6545 2.15576 93.6989 3.41642C95.441 13.6981 95.3333 23.9418 93.3821 34.1412C87.8517 42.8075 80.5664 44.6066 71.5264 39.5259C65.3624 33.7737 64.2031 27.122 68.0421 19.5707C70.0503 17.5625 72.0522 15.5606 74.0604 13.5524C80.123 9.06091 86.2489 4.7341 92.4319 0.565674Z" fill="#B7D5FD"/>
<path fill-rule="evenodd" clip-rule="evenodd" d="M56.9557 43.6437C57.7412 46.2537 58.267 48.9968 58.5394 51.8792C59.1349 60.159 58.9259 68.3945 57.9059 76.5857C53.8008 84.1497 47.5672 86.7914 39.2177 84.5044C31.3686 80.6084 28.5179 74.3748 30.6654 65.8162C32.0021 63.4215 33.5859 61.2043 35.4167 59.1644C42.3598 53.5896 49.5374 48.4139 56.9557 43.6437Z" fill="#B8D5FD"/>
<path fill-rule="evenodd" clip-rule="evenodd" d="M99.4004 43.6437C100.838 50.1244 101.472 56.7761 101.301 63.5989C103.474 78.0997 97.3478 85.2773 82.9294 85.1379C73.9844 81.2926 70.7092 74.6408 73.1101 65.1827C74.6369 62.3826 76.6451 59.9563 79.1284 57.8974C85.6471 52.7407 92.4065 47.9895 99.4004 43.6437Z" fill="#B8D5FD"/>
<path fill-rule="evenodd" clip-rule="evenodd" d="M27.1813 91.1561C28.0872 91.3969 28.6131 92.0304 28.7651 93.0566C30.2411 102.756 30.4565 112.473 29.3986 122.198C25.5723 130.725 19.1296 133.784 10.0768 131.383C2.22144 127.462 -0.629308 121.235 1.52459 112.695C2.86128 110.3 4.44503 108.083 6.27584 106.043C13.0036 100.678 19.9721 95.711 27.1813 91.1561Z" fill="#B7D5FD"/>
<path fill-rule="evenodd" clip-rule="evenodd" d="M65.8248 91.1562C66.4583 91.0992 66.9841 91.3146 67.4085 91.7897C68.8213 100.823 69.2394 109.901 68.6755 119.03C66.2302 129.812 59.5785 133.93 48.7203 131.383C40.6242 126.962 37.9888 120.31 40.8015 111.428C42.9998 108.596 45.4261 105.961 48.0868 103.509C53.934 99.2206 59.8446 95.1029 65.8248 91.1562Z" fill="#B7D5FD"/>
<path fill-rule="evenodd" clip-rule="evenodd" d="M101.934 91.1561C102.568 91.1561 103.201 91.1561 103.835 91.1561C104.544 97.5671 104.969 104.01 105.102 110.478C106.229 117.801 104.329 124.136 99.4003 129.483C91.3168 134.196 84.2406 133.037 78.178 125.999C75.2893 120.475 75.2893 114.982 78.178 109.528C85.3936 102.394 93.3124 96.2685 101.934 91.1561Z" fill="#B8D5FD"/>
</svg>
