<svg width="177" height="166" viewBox="0 0 177 166" fill="none" xmlns="http://www.w3.org/2000/svg">
<path fill-rule="evenodd" clip-rule="evenodd" d="M24.0162 49.1588C25.7058 49.1588 27.3947 49.1588 29.0842 49.1588C29.0842 45.5687 29.0842 41.9793 29.0842 38.3893C31.6119 20.9674 41.1144 9.03669 57.5917 2.59653C81.9561 -3.43249 100.222 4.48626 112.389 26.3528C129.511 18.55 143.66 22.14 154.834 37.1223C159.469 46.0673 160.209 55.3588 157.051 64.9963C173.506 68.2385 179.735 77.952 175.739 94.1373C172.652 100.808 167.479 104.926 160.219 106.491C114.818 106.913 69.4173 106.913 24.0162 106.491C11.312 103.711 3.39325 96.0036 0.259954 83.3678C-1.5791 65.0596 6.33965 53.6566 24.0162 49.1588Z" fill="#E2EBED"/>
<path fill-rule="evenodd" clip-rule="evenodd" d="M29.0844 38.3893C29.0844 41.9793 29.0844 45.5687 29.0844 49.1588C27.3948 49.1588 25.7059 49.1588 24.0164 49.1588C25.3511 48.5456 26.8297 48.334 28.4509 48.5253C28.2475 45.0246 28.4585 41.6455 29.0844 38.3893Z" fill="#8FADCE"/>
<path fill-rule="evenodd" clip-rule="evenodd" d="M55.6912 123.912C56.4818 124.44 56.9044 125.285 56.9582 126.446C58.1606 135.281 58.4773 144.15 57.9085 153.053C55.1743 162.822 48.7335 166.729 38.5867 164.772C30.2093 160.558 27.3586 153.907 30.0345 144.817C32.011 141.362 34.6508 138.511 37.9532 136.265C43.8049 131.987 49.7173 127.869 55.6912 123.912Z" fill="#B7D5FD"/>
<path fill-rule="evenodd" clip-rule="evenodd" d="M91.8008 123.912C92.8759 125.055 93.4036 126.534 93.3846 128.346C94.8606 138.121 94.649 147.834 92.7511 157.487C88.5681 164.098 82.5498 166.526 74.6963 164.772C65.4326 159.787 63.0044 152.502 67.4111 142.917C69.6283 140.699 71.8456 138.482 74.0628 136.265C79.9145 131.987 85.8269 127.869 91.8008 123.912Z" fill="#B8D5FD"/>
<path fill-rule="evenodd" clip-rule="evenodd" d="M128.544 123.912C129.353 124.668 129.775 125.724 129.811 127.079C130.979 135.493 131.296 143.94 130.761 152.419C128.537 162.848 122.097 166.966 111.439 164.772C103.142 160.525 100.291 153.873 102.887 144.817C105.294 141.776 107.933 138.925 110.806 136.265C116.657 131.987 122.57 127.869 128.544 123.912Z" fill="#B8D5FE"/>
</svg>
