<svg width="177" height="165" viewBox="0 0 177 165" fill="none" xmlns="http://www.w3.org/2000/svg">
<path fill-rule="evenodd" clip-rule="evenodd" d="M24.0162 48.5168C25.7058 48.5168 27.3947 48.5168 29.0842 48.5168C29.0842 44.9268 29.0842 41.3374 29.0842 37.7473C31.6119 20.3254 41.1144 8.39472 57.5917 1.95456C81.9561 -4.07446 100.222 3.8443 112.389 25.7108C129.511 17.908 143.66 21.498 154.834 36.4803C159.469 45.4253 160.209 54.7169 157.051 64.3543C173.506 67.5966 179.735 77.31 175.739 93.4953C172.652 100.166 167.479 104.284 160.219 105.849C114.818 106.271 69.4173 106.271 24.0162 105.849C11.312 103.069 3.39325 95.3616 0.259954 82.7258C-1.5791 64.4177 6.33965 53.0147 24.0162 48.5168Z" fill="#E2EBED"/>
<path fill-rule="evenodd" clip-rule="evenodd" d="M29.0844 37.7473C29.0844 41.3374 29.0844 44.9268 29.0844 48.5168C27.3948 48.5168 25.7059 48.5168 24.0164 48.5168C25.3511 47.9036 26.8297 47.692 28.4509 47.8833C28.2475 44.3826 28.4585 41.0035 29.0844 37.7473Z" fill="#8FADCE"/>
<path fill-rule="evenodd" clip-rule="evenodd" d="M91.8008 123.27C92.8759 124.413 93.4036 125.892 93.3846 127.704C94.8606 137.479 94.649 147.192 92.7511 156.845C88.5681 163.456 82.5498 165.884 74.6963 164.131C65.4326 159.146 63.0044 151.86 67.4111 142.275C69.6283 140.058 71.8456 137.84 74.0628 135.623C79.9145 131.345 85.8269 127.227 91.8008 123.27Z" fill="#B8D5FD"/>
</svg>
