<svg width="24" height="24" viewBox="0 0 24 24" fill="none" xmlns="http://www.w3.org/2000/svg">
<path d="M23.6736 20.751L18.9998 16.0773C18.7889 15.8663 18.5029 15.7491 18.2029 15.7491H17.4388C18.7326 14.0943 19.5014 12.0129 19.5014 9.74867C19.5014 4.36234 15.137 -0.00204468 9.75071 -0.00204468C4.36438 -0.00204468 0 4.36234 0 9.74867C0 15.135 4.36438 19.4994 9.75071 19.4994C12.0149 19.4994 14.0963 18.7306 15.7512 17.4367V18.2008C15.7512 18.5009 15.8683 18.7868 16.0793 18.9978L20.7531 23.6716C21.1937 24.1122 21.9063 24.1122 22.3423 23.6716L23.6689 22.3449C24.1096 21.9042 24.1096 21.1917 23.6736 20.751ZM9.75071 15.7491C6.43641 15.7491 3.75027 13.0677 3.75027 9.74867C3.75027 6.43436 6.43172 3.74823 9.75071 3.74823C13.065 3.74823 15.7512 6.42968 15.7512 9.74867C15.7512 13.063 13.0697 15.7491 9.75071 15.7491Z" fill="#74A3FC"/>
</svg>
