<svg width="25" height="26" viewBox="0 0 25 26" fill="none" xmlns="http://www.w3.org/2000/svg">
<path d="M24.1935 15.643L22.0402 14.3996C22.2576 13.227 22.2576 12.024 22.0402 10.8513L24.1935 9.6079C24.4411 9.46637 24.5523 9.17321 24.4715 8.90027C23.9104 7.10085 22.9551 5.47329 21.7066 4.11867C21.5145 3.91144 21.2012 3.86089 20.9585 4.00242L18.8053 5.24584C17.9006 4.46744 16.8593 3.86595 15.7322 3.47169V0.989915C15.7322 0.706861 15.535 0.459189 15.257 0.398534C13.402 -0.0159376 11.5015 0.00428052 9.73748 0.398534C9.45948 0.459189 9.26235 0.706861 9.26235 0.989915V3.47675C8.14024 3.87606 7.09901 4.47755 6.18919 5.25089L4.04101 4.00747C3.79334 3.86595 3.48501 3.91144 3.29294 4.12373C2.04447 5.47329 1.08916 7.10085 0.528109 8.90532C0.442182 9.17827 0.558436 9.47143 0.806109 9.61296L2.95934 10.8564C2.742 12.029 2.742 13.232 2.95934 14.4047L0.806109 15.6481C0.558436 15.7896 0.447237 16.0828 0.528109 16.3557C1.08916 18.1551 2.04447 19.7827 3.29294 21.1373C3.48501 21.3445 3.79839 21.3951 4.04101 21.2536L6.19425 20.0101C7.09901 20.7885 8.14024 21.39 9.26741 21.7843V24.2711C9.26741 24.5542 9.46453 24.8018 9.74253 24.8625C11.5975 25.277 13.4981 25.2567 15.2621 24.8625C15.5401 24.8018 15.7372 24.5542 15.7372 24.2711V21.7843C16.8593 21.385 17.9006 20.7835 18.8104 20.0101L20.9636 21.2536C21.2113 21.3951 21.5196 21.3496 21.7117 21.1373C22.9601 19.7877 23.9155 18.1602 24.4765 16.3557C24.5523 16.0777 24.4411 15.7845 24.1935 15.643ZM12.4973 16.6691C10.2682 16.6691 8.45362 14.8545 8.45362 12.6255C8.45362 10.3964 10.2682 8.58183 12.4973 8.58183C14.7263 8.58183 16.5409 10.3964 16.5409 12.6255C16.5409 14.8545 14.7263 16.6691 12.4973 16.6691Z" fill="#969696"/>
</svg>
