<svg width="178" height="192" viewBox="0 0 178 192" fill="none" xmlns="http://www.w3.org/2000/svg">
<path fill-rule="evenodd" clip-rule="evenodd" d="M66.9824 0.379258C87.9386 -0.6014 103.041 8.2676 112.278 26.9863C127.963 18.8977 141.685 21.4317 153.455 34.5883C159.86 44.2403 161.235 54.5879 157.573 65.6298C167.69 66.5654 174.342 71.845 177.528 81.4673C178.789 94.1347 173.404 102.476 161.374 106.491C115.971 106.913 70.5743 106.913 25.1714 106.491C6.56549 101.804 -1.56865 89.8725 0.781639 70.6978C5.07043 56.7975 14.4716 49.4065 28.9724 48.5253C27.9968 27.2542 37.0749 12.156 56.2129 3.23001C59.8555 2.16193 63.4475 1.21168 66.9824 0.379258Z" fill="#E2EBED"/>
<path fill-rule="evenodd" clip-rule="evenodd" d="M46.7102 128.346C53.3873 127.737 56.238 130.694 55.2624 137.215C53.4126 140.715 50.5619 141.877 46.7102 140.7C43.2133 138.85 42.0476 136 43.226 132.147C44.0875 130.549 45.2468 129.282 46.7102 128.346Z" fill="#F9FAFC"/>
<path fill-rule="evenodd" clip-rule="evenodd" d="M86.6208 128.346C94.2925 128.511 96.7251 132.101 93.906 139.116C86.3547 142.838 82.7628 140.516 83.1365 132.147C83.9981 130.549 85.1574 129.282 86.6208 128.346Z" fill="#FAFBFC"/>
<path fill-rule="evenodd" clip-rule="evenodd" d="M125.898 128.346C132.556 127.718 135.407 130.674 134.45 137.215C132.6 140.715 129.749 141.877 125.898 140.7C122.692 138.968 121.527 136.328 122.414 132.781C123.281 131.029 124.441 129.551 125.898 128.346Z" fill="#F9FAFC"/>
<path fill-rule="evenodd" clip-rule="evenodd" d="M65.7153 153.053C72.386 152.862 75.0277 156.03 73.634 162.555C73.1082 163.928 72.158 164.878 70.7833 165.406C64.1442 166.786 61.0844 164.147 61.5975 157.487C62.6681 155.677 64.0428 154.199 65.7153 153.053Z" fill="#F7F9FB"/>
<path fill-rule="evenodd" clip-rule="evenodd" d="M108.16 153.053C115.831 153.217 118.264 156.807 115.445 163.822C113.114 165.634 110.472 166.162 107.526 165.406C106.152 164.878 105.201 163.928 104.676 162.555C103.466 158.418 104.625 155.251 108.16 153.053Z" fill="#F7F9FB"/>
<path fill-rule="evenodd" clip-rule="evenodd" d="M86.6207 179.026C92.8417 178.804 95.6924 181.76 95.173 187.895C93.0951 191.449 90.0353 192.61 85.9872 191.38C82.9971 189.318 82.0469 186.467 83.1365 182.827C83.998 181.229 85.1573 179.962 86.6207 179.026Z" fill="#F8F9FB"/>
</svg>
