<svg width="164" height="163" viewBox="0 0 164 163" fill="none" xmlns="http://www.w3.org/2000/svg">
<path fill-rule="evenodd" clip-rule="evenodd" d="M108.818 115.659C108.78 115.317 108.569 115.101 108.184 115.025C107.555 118.167 107.344 121.335 107.551 124.528C105.512 128.671 102.662 129.304 98.9987 126.428C98.1802 119.099 97.7583 111.706 97.7317 104.256C95.1882 101.608 92.5484 99.0737 89.8129 96.6537C89.0743 105.516 88.9685 114.385 89.4962 123.261C96.4647 130.229 103.433 137.198 110.402 144.166C111.669 146.276 111.669 148.392 110.402 150.501C109.029 151.876 107.657 153.244 106.284 154.619C104.681 155.519 102.992 155.728 101.216 155.252C97.1178 151.787 93.211 148.094 89.4962 144.166C89.4594 149.722 89.0369 155.214 88.2292 160.637C87.6571 161.397 86.9185 161.923 86.0119 162.221C83.0554 162.645 80.0995 162.645 77.1429 162.221C76.1616 161.454 75.423 160.504 74.9257 159.37C74.7147 154.093 74.5031 148.81 74.2922 143.533C70.597 147.226 66.9011 150.926 63.2059 154.619C61.6032 155.519 59.9136 155.728 58.1379 155.252C56.3432 153.46 54.5479 151.66 52.7532 149.868C52.3306 148.176 52.3306 146.491 52.7532 144.8C59.9326 137.622 67.1127 130.438 74.2922 123.261C74.7147 114.183 74.7147 105.098 74.2922 96.0202C71.5472 98.7632 68.8016 101.513 66.0567 104.256C65.8457 111.015 65.6341 117.768 65.4232 124.528C63.2287 128.766 60.2722 129.399 56.5542 126.428C55.7965 122.678 55.3746 118.877 55.2872 115.025C53.2809 117.033 51.2752 119.035 49.2689 121.043C43.3843 122.494 40.9561 120.277 41.9837 114.392C44.2009 112.174 46.4182 109.957 48.6354 107.74C44.5544 107.689 40.5425 107.265 36.5989 106.473C35.3997 104.623 35.083 102.621 35.6487 100.455C35.9654 99.2954 36.7047 98.5542 37.8659 98.2374C44.8344 98.0284 51.8029 97.813 58.7714 97.6039C61.5164 94.8609 64.262 92.1115 67.0069 89.3684C57.927 88.944 48.8464 88.944 39.7664 89.3684C32.7979 96.3369 25.8294 103.305 18.8609 110.274C17.2582 111.174 15.5686 111.383 13.7929 110.907C11.9982 109.115 10.2029 107.315 8.40817 105.523C7.98562 103.831 7.98562 102.146 8.40817 100.455C12.021 96.9451 15.5053 93.3595 18.8609 89.6852C19.2049 89.6472 19.4159 89.4381 19.4944 89.0517C14.4442 88.4182 9.37615 88.2091 4.29042 88.4182C2.64902 87.9431 1.48781 86.8851 0.806166 85.2507C0.383622 82.7167 0.383622 80.1827 0.806166 77.6487C1.30346 76.5147 2.04212 75.5645 3.02342 74.7979C8.526 74.6902 14.0159 74.3735 19.4944 73.8477C15.4711 70.3508 11.7759 66.5498 8.40817 62.4447C7.98562 60.7532 7.98562 59.0681 8.40817 57.3767C10.2257 55.3495 12.2313 53.5504 14.4264 51.9919C15.9918 51.5422 17.4704 51.7575 18.8609 52.6254C26.0404 59.803 33.2205 66.9869 40.3999 74.1644C49.4799 74.5889 58.5605 74.5889 67.6404 74.1644C64.8955 71.4214 62.1499 68.672 59.4049 65.9289C52.4364 65.7199 45.4679 65.5045 38.4994 65.2954C34.585 62.3877 34.3741 59.2202 37.8659 55.7929C41.264 55.6852 44.6431 55.3685 48.0019 54.8427C46.1116 52.6381 44.1053 50.5222 41.9837 48.5077C40.8225 42.9139 43.0397 40.6966 48.6354 41.8559C51.0421 43.6297 53.2593 45.6316 55.2872 47.8742C55.4981 44.4976 55.7097 41.1147 55.9207 37.7382C57.7927 35.3436 60.2209 34.6087 63.2059 35.5209C64.1872 36.2875 64.9259 37.2377 65.4232 38.3717C65.6341 45.1311 65.8457 51.8842 66.0567 58.6437C68.8016 61.3867 71.5472 64.1361 74.2922 66.8792C74.7147 57.8011 74.7147 48.7167 74.2922 39.6387C67.1127 32.4611 59.9326 25.2772 52.7532 18.0997C51.4862 16.4082 51.4862 14.7231 52.7532 13.0317C54.7766 10.3647 57.3106 8.46416 60.3552 7.33019C61.3859 7.41255 62.3361 7.7293 63.2059 8.28044C66.9011 11.9737 70.597 15.6734 74.2922 19.3667C74.5031 13.8742 74.7147 8.38814 74.9257 2.89569C75.665 2.1545 76.4036 1.41964 77.1429 0.678441C80.0995 0.253996 83.0554 0.253996 86.0119 0.678441C87.3847 1.20425 88.335 2.1545 88.8627 3.52919C89.0736 8.80625 89.2852 14.0896 89.4962 19.3667C93.403 15.458 97.3091 11.5556 101.216 7.64694C102.992 7.17182 104.681 7.38087 106.284 8.28044C109.035 10.1746 110.725 12.7086 111.352 15.8824C111.246 16.6236 111.141 17.3585 111.035 18.0997C103.856 25.2772 96.6756 32.4611 89.4962 39.6387C89.0736 48.7167 89.0736 57.8011 89.4962 66.8792C92.2411 64.1361 94.9867 61.3867 97.7317 58.6437C97.9426 51.6752 98.1542 44.7067 98.3652 37.7382C100.209 35.3436 102.637 34.6087 105.65 35.5209C106.178 36.0467 106.706 36.5789 107.234 37.1047C108.019 40.6269 108.442 44.2126 108.501 47.8742C110.507 45.866 112.513 43.8641 114.519 41.8559C119.693 40.703 122.121 42.7048 121.805 47.8742C119.821 50.4905 117.604 52.9232 115.153 55.1594C118.531 55.3685 121.91 55.5839 125.289 55.7929C128.415 57.4781 129.154 59.9107 127.506 63.0782C126.671 64.3389 125.509 65.0737 124.022 65.2954C117.476 65.5045 110.929 65.7199 104.383 65.9289C101.638 68.672 98.8929 71.4214 96.1479 74.1644C105.228 74.5889 114.308 74.5889 123.388 74.1644C130.779 66.7715 138.17 59.3849 145.561 51.9919C147.337 51.5168 149.026 51.7259 150.629 52.6254C152.002 54.0001 153.374 55.3685 154.747 56.7432C155.648 58.3459 155.858 60.0374 155.38 61.8112C151.705 66.119 147.798 70.2367 143.66 74.1644C149.151 74.3735 154.641 74.5889 160.131 74.7979C161.775 75.6468 162.725 77.0215 162.982 78.9157C163.399 81.494 163.188 84.028 162.349 86.5177C161.455 87.3349 160.505 88.0698 159.498 88.7349C154.43 88.944 149.362 89.1594 144.294 89.3684C147.778 92.8527 151.262 96.3369 154.747 99.8212C156.014 101.931 156.014 104.047 154.747 106.156C152.893 108.76 150.465 110.451 147.461 111.224C146.828 111.116 146.194 111.015 145.561 110.907C138.381 103.73 131.201 96.546 124.022 89.3684C114.942 88.944 105.861 88.944 96.7814 89.3684C99.5264 92.1115 102.272 94.8609 105.017 97.6039C111.774 97.813 118.531 98.0284 125.289 98.2374C129.23 100.803 129.441 103.755 125.922 107.106C122.332 107.315 118.743 107.531 115.153 107.74C117.604 109.976 119.821 112.409 121.805 115.025C122.121 120.195 119.693 122.196 114.519 121.043C112.702 119.118 110.801 117.325 108.818 115.659Z" fill="#FCFDFD"/>
<path fill-rule="evenodd" clip-rule="evenodd" d="M4.29028 88.4181C9.37602 88.2091 14.444 88.4181 19.4943 89.0516C19.4157 89.4381 19.2048 89.6471 18.8608 89.6851C14.0037 89.2607 9.14733 88.8426 4.29028 88.4181Z" fill="#90AFCE"/>
<path fill-rule="evenodd" clip-rule="evenodd" d="M108.818 115.659C108.395 118.617 107.973 121.569 107.551 124.528C107.344 121.335 107.555 118.167 108.184 115.025C108.569 115.101 108.78 115.317 108.818 115.659Z" fill="#8FAECE"/>
</svg>
