<svg width="215" height="158" viewBox="0 0 215 158" fill="none" xmlns="http://www.w3.org/2000/svg">
<path fill-rule="evenodd" clip-rule="evenodd" d="M67.0332 0.0902401C69.03 -0.252483 70.6138 0.381017 71.7845 1.99074C72.207 10.8597 72.207 19.7287 71.7845 28.5977C69.673 31.1317 67.5609 31.1317 65.4495 28.5977C65.0269 19.7287 65.0269 10.8597 65.4495 1.99074C66.1115 1.43769 66.6392 0.804195 67.0332 0.0902401Z" fill="#F8D87C"/>
<path fill-rule="evenodd" clip-rule="evenodd" d="M21.4212 19.0953C22.4975 18.9939 23.5536 19.0991 24.5887 19.412C30.607 25.4303 36.6252 31.4485 42.6435 37.4668C43.1712 41.162 41.5874 42.7457 37.8922 42.218C31.874 36.1998 25.8557 30.1815 19.8375 24.1633C19.2185 22.062 19.7462 20.3724 21.4212 19.0953Z" fill="#FAD97B"/>
<path fill-rule="evenodd" clip-rule="evenodd" d="M112.645 19.0953C116.336 18.878 117.92 20.5675 117.397 24.1633C111.378 30.1815 105.36 36.1998 99.3419 42.218C95.6467 42.7457 94.0629 41.162 94.5906 37.4668C100.737 31.4264 106.755 25.3023 112.645 19.0953Z" fill="#F9D97B"/>
<path fill-rule="evenodd" clip-rule="evenodd" d="M92.3733 54.5713C75.1078 62.4805 66.4498 75.995 66.3998 95.1153C65.3437 95.1153 64.2883 95.1153 63.2323 95.1153C47.0786 90.4527 39.7934 79.6832 41.3765 62.8068C46.1658 46.9484 56.8295 39.6631 73.3683 40.951C81.7628 42.7045 88.0978 47.2448 92.3733 54.5713Z" fill="#FDDB7B"/>
<path fill-rule="evenodd" clip-rule="evenodd" d="M63.2323 95.1152C64.2883 95.1152 65.3437 95.1152 66.3998 95.1152C66.4498 75.995 75.1079 62.4805 92.3733 54.5712C112.603 47.2493 129.813 51.6838 144.004 67.8747C146.064 70.9371 147.964 74.1046 149.705 77.3772C162.407 70.7838 174.55 71.734 186.131 80.228C196.362 90.3184 199.107 102.143 194.367 115.704C209.515 118.022 216.167 126.785 214.322 141.994C211.832 149.763 206.659 154.726 198.801 156.881C152.767 157.304 106.733 157.304 60.6983 156.881C43.958 151.815 36.2502 140.518 37.5755 122.989C41.4367 108.463 50.8334 100.439 65.7663 98.9162C66.3694 97.9375 66.5803 96.8814 66.3998 95.7487C65.1866 95.9287 64.1312 95.7177 63.2323 95.1152Z" fill="#E2EBED"/>
<path fill-rule="evenodd" clip-rule="evenodd" d="M2.41625 64.7073C11.0768 64.6015 19.7342 64.7073 28.3897 65.024C31.6846 67.0766 31.6846 69.1887 28.3897 71.359C19.7317 71.7816 11.0743 71.7816 2.41625 71.359C-0.0765747 69.1443 -0.0765747 66.9271 2.41625 64.7073Z" fill="#F8D87C"/>
<path fill-rule="evenodd" clip-rule="evenodd" d="M37.8923 93.8482C41.6154 93.662 43.1992 95.3509 42.6436 98.9162C36.8363 104.724 31.0296 110.53 25.2223 116.337C21.2566 117.865 19.4619 116.493 19.8376 112.22C25.9838 106.179 32.0021 100.055 37.8923 93.8482Z" fill="#FAD97B"/>
</svg>
