<svg width="18" height="18" viewBox="0 0 18 18" fill="none" xmlns="http://www.w3.org/2000/svg">
<path d="M9.00044 5.62485C7.14058 5.62485 5.62527 7.14015 5.62527 9.00001C5.62527 10.8599 7.14058 12.3752 9.00044 12.3752C10.8603 12.3752 12.3756 10.8599 12.3756 9.00001C12.3756 7.14015 10.8603 5.62485 9.00044 5.62485ZM17.6634 8.45506L14.3339 6.79209L15.5117 3.26223C15.6699 2.78408 15.2164 2.33055 14.7417 2.49227L11.2119 3.67006L9.54539 0.337089C9.32037 -0.112933 8.6805 -0.112933 8.45549 0.337089L6.79252 3.66655L3.25914 2.48876C2.78099 2.33055 2.32746 2.78408 2.48918 3.25872L3.66698 6.78857L0.337516 8.45506C-0.112505 8.68007 -0.112505 9.31995 0.337516 9.54496L3.66698 11.2079L2.48918 14.7413C2.33097 15.2195 2.78451 15.673 3.25914 15.5113L6.789 14.3335L8.45197 17.6629C8.67698 18.113 9.31686 18.113 9.54187 17.6629L11.2048 14.3335L14.7347 15.5113C15.2128 15.6695 15.6664 15.2159 15.5047 14.7413L14.3269 11.2114L17.6563 9.54847C18.1134 9.31995 18.1134 8.68007 17.6634 8.45506ZM12.1822 12.1818C10.4278 13.9362 7.57302 13.9362 5.81864 12.1818C4.06426 10.4274 4.06426 7.5726 5.81864 5.81821C7.57302 4.06383 10.4278 4.06383 12.1822 5.81821C13.9366 7.5726 13.9366 10.4274 12.1822 12.1818Z" fill="#FAFAFA"/>
</svg>
