<svg width="160" height="161" viewBox="0 0 160 161" fill="none" xmlns="http://www.w3.org/2000/svg">
<path fill-rule="evenodd" clip-rule="evenodd" d="M78.1983 0.163285C80.3966 -0.232652 82.1894 0.400848 83.5831 2.06379C84.0075 12.6223 84.0075 23.1802 83.5831 33.7388C81.2582 36.2728 78.9395 36.2728 76.6146 33.7388C76.1902 23.1802 76.1902 12.6223 76.6146 2.06379C77.058 1.30929 77.5839 0.675786 78.1983 0.163285Z" fill="#F6C94D"/>
<path fill-rule="evenodd" clip-rule="evenodd" d="M24.3508 22.3358C25.6368 22.2331 26.9038 22.3389 28.1518 22.6525C35.228 29.7268 42.2978 36.8005 49.374 43.8748C49.8112 49.1366 47.5939 50.7204 42.7223 48.626C36.2796 42.1852 29.8432 35.7451 23.4005 29.3043C21.9372 26.6904 22.2539 24.3674 24.3508 22.3358Z" fill="#F2C74F"/>
<path fill-rule="evenodd" clip-rule="evenodd" d="M132.046 22.3358C137.266 22.1729 138.85 24.496 136.797 29.3043C130.354 35.745 123.918 42.1852 117.475 48.626C112.572 50.6836 110.355 49.0999 110.824 43.8748C118.026 36.7783 125.103 29.5988 132.046 22.3358Z" fill="#F3C74F"/>
<path fill-rule="evenodd" clip-rule="evenodd" d="M73.7638 47.6758C87.5234 46.1661 98.6097 50.8116 107.023 61.6128C114.492 74.7332 114.073 87.6148 105.756 100.256C93.1426 113.481 78.6734 115.909 62.3608 107.542C47.4102 95.6178 43.926 80.9421 51.9081 63.5133C57.1914 55.3696 64.4767 50.0907 73.7638 47.6758Z" fill="#F7CA4E"/>
<path fill-rule="evenodd" clip-rule="evenodd" d="M2.17832 76.1832C12.5297 76.0774 22.8748 76.1832 33.2198 76.5C36.7674 79.6415 36.343 82.1755 31.9528 84.102C22.2413 84.5245 12.5234 84.5245 2.81182 84.102C0.410857 82.8014 -0.330338 80.7958 0.594572 78.0837C1.03802 77.3292 1.56383 76.6957 2.17832 76.1832Z" fill="#EFC651"/>
<path fill-rule="evenodd" clip-rule="evenodd" d="M126.978 76.1832C137.329 76.0774 147.674 76.1832 158.019 76.5C159.825 78.1211 160.351 80.1274 159.603 82.5182C158.862 83.4007 157.912 83.929 156.752 84.102C147.25 84.5245 137.747 84.5245 128.245 84.102C123.791 82.0368 123.373 79.3976 126.978 76.1832Z" fill="#F0C651"/>
<path fill-rule="evenodd" clip-rule="evenodd" d="M43.9894 110.392C49.0383 110.354 50.6221 112.677 48.7406 117.361C42.2979 123.802 35.8615 130.242 29.4189 136.682C24.1798 139.15 21.9626 137.566 22.7671 131.931C29.97 124.835 37.0462 117.655 43.9894 110.392Z" fill="#F3C74F"/>
<path fill-rule="evenodd" clip-rule="evenodd" d="M112.407 110.392C113.985 110.264 115.461 110.581 116.842 111.342C123.703 118.205 130.57 125.069 137.431 131.931C138.039 137.285 135.821 138.869 130.779 136.682C124.336 130.242 117.9 123.802 111.457 117.361C109.994 114.747 110.31 112.424 112.407 110.392Z" fill="#F2C750"/>
<path fill-rule="evenodd" clip-rule="evenodd" d="M77.5648 124.963C79.0599 124.86 80.536 124.965 81.9993 125.28C82.7405 125.596 83.2663 126.124 83.5831 126.863C84.0075 137.21 84.0075 147.558 83.5831 157.905C81.2582 161.283 78.9395 161.283 76.6146 157.905C76.1902 147.346 76.1902 136.788 76.6146 126.23C77.0707 125.885 77.3875 125.463 77.5648 124.963Z" fill="#F6C94D"/>
</svg>
