<svg width="178" height="188" viewBox="0 0 178 188" fill="none" xmlns="http://www.w3.org/2000/svg">
<path fill-rule="evenodd" clip-rule="evenodd" d="M64.5044 0.379334C86.2081 -1.28487 102.151 7.37317 112.334 26.3528C127.721 19.117 141.235 21.651 152.878 33.9548C159.868 43.5479 161.24 53.8949 156.995 64.9963C172.246 67.4664 178.898 76.3354 176.951 91.6033C174.34 99.9149 168.744 104.878 160.163 106.491C114.762 106.913 69.3615 106.913 23.9604 106.491C6.94271 101.915 -0.976043 90.8292 0.204168 73.2318C2.80722 61.3366 9.88088 53.4179 21.4264 49.4756C23.9389 48.951 26.4729 48.6343 29.0284 48.5253C28.5184 23.2861 40.344 7.23761 64.5044 0.379334Z" fill="#B9D6FE"/>
<path fill-rule="evenodd" clip-rule="evenodd" d="M79.0749 118.844C85.4137 118.739 91.7487 118.844 98.0799 119.161C95.6961 125.362 93.373 131.591 91.1114 137.849C97.2241 138.376 103.348 138.693 109.483 138.799C97.5522 154.953 85.6209 171.108 73.6902 187.262C76.5378 175.858 79.5995 164.455 82.8759 153.053C78.0189 153.053 73.1625 153.053 68.3054 153.053C71.3855 141.49 74.9755 130.087 79.0749 118.844Z" fill="#FBDA7B"/>
</svg>
