<svg width="178" height="200" viewBox="0 0 178 200" fill="none" xmlns="http://www.w3.org/2000/svg">
<path fill-rule="evenodd" clip-rule="evenodd" d="M65.0258 0.379271C81.7565 -1.26213 95.5858 4.22842 106.52 16.8503C108.484 20.1457 110.593 23.3132 112.855 26.3528C128.94 18.7324 142.668 21.6889 154.033 35.2218C159.854 44.7705 161.02 54.9065 157.517 65.6298C167.703 66.027 174.355 71.095 177.472 80.8338C179.246 94.2975 173.652 102.85 160.684 106.491C115.281 106.913 69.8847 106.913 24.4818 106.491C6.56641 101.611 -1.35234 89.8915 0.725539 71.3313C3.72199 60.1018 10.7919 52.8166 21.9478 49.4755C24.4818 48.9478 27.0158 48.4195 29.5498 47.8918C28.9036 22.7963 40.7311 6.9588 65.0258 0.379271Z" fill="#B9D6FE"/>
<path fill-rule="evenodd" clip-rule="evenodd" d="M77.0623 118.844C84.677 118.633 92.279 118.844 99.8683 119.477C96.9986 126.826 94.2492 134.217 91.6328 141.65C99.0131 142.177 106.406 142.494 113.805 142.6C99.4756 161.654 85.2218 180.765 71.0441 199.932C74.5283 186.645 78.228 173.341 82.1303 160.021C76.2324 159.389 70.3219 159.177 64.3923 159.388C68.7381 145.919 72.9636 132.404 77.0623 118.844Z" fill="#FBDA7B"/>
<path fill-rule="evenodd" clip-rule="evenodd" d="M37.7853 123.912C38.9636 127.24 39.6985 130.83 40.0026 134.681C40.427 140.805 40.427 146.929 40.0026 153.053C37.1708 162.864 30.7281 166.771 20.6808 164.772C12.9901 160.9 9.93033 154.67 11.4951 146.084C12.8318 143.691 14.4155 141.474 16.2463 139.432C23.1895 133.855 30.367 128.681 37.7853 123.912Z" fill="#B7D5FD"/>
<path fill-rule="evenodd" clip-rule="evenodd" d="M164.485 123.912C165.284 124.554 165.708 125.504 165.752 126.762C167.216 136.582 167.323 146.402 166.069 156.22C161.692 164.301 155.04 166.941 146.114 164.139C138.702 159.646 136.276 153.205 138.829 144.817C141.027 141.987 143.453 139.348 146.114 136.898C152.176 132.41 158.302 128.081 164.485 123.912Z" fill="#B8D5FD"/>
</svg>
