<svg width="133" height="119" viewBox="0 0 133 119" fill="none" xmlns="http://www.w3.org/2000/svg">
<path d="M51.8542 0.255135C43.3921 1.67843 36.4309 7.9668 34.3607 16.0408C33.5843 19.1461 33.4291 21.6822 33.9984 22.7691C34.8782 24.5029 37.5178 24.6323 38.5529 22.9761C38.7599 22.6656 39.0187 21.4752 39.0964 20.3624C39.6657 13.7376 44.1426 8.14795 50.5086 6.12946C53.1999 5.27548 57.5474 5.35312 60.1611 6.28473C62.8783 7.24222 64.6639 8.40673 66.7083 10.5287C69.7101 13.6859 71.1075 17.2053 71.1075 21.5528C71.1075 24.3735 70.6159 26.392 69.3996 28.8504C66.9153 33.7673 62.2055 36.8985 56.3053 37.5196C54.882 37.6748 43.0557 37.7784 27.71 37.7784H1.54725L0.874424 38.4512C-0.00543102 39.331 -0.238334 40.5991 0.25335 41.5824C1.08145 43.161 -0.522992 43.0834 29.5215 43.0834C51.1814 43.0834 57.3663 43.0057 58.7896 42.7469C69.1667 40.7802 76.5419 32.0075 76.5419 21.6304C76.5419 16.6618 75.3515 12.9095 72.505 8.92429C67.9763 2.53241 59.4883 -1.01289 51.8542 0.255135Z" fill="#E2EBED"/>
<path d="M107.13 19.1461C103.403 19.819 99.237 21.9151 96.3904 24.5547C92.1982 28.4364 89.8692 33.3014 89.5328 38.8652L89.3775 41.3754L90.1797 42.1517C91.2407 43.2386 92.7158 43.2645 93.8544 42.2294C94.579 41.5824 94.6825 41.3237 94.8895 39.1499C95.1742 36.5103 95.6141 34.9576 96.7269 32.8356C100.79 25.2016 110.261 22.148 118.05 26.0297C122.734 28.3329 125.995 32.9392 126.771 38.2959C127.729 44.8431 124.08 51.7525 118.05 54.7026C114.427 56.5141 118.413 56.4106 57.6251 56.4106C15.7285 56.4365 2.42713 56.5141 1.72842 56.747C-0.108925 57.3939 -0.574731 59.723 0.874442 61.1721L1.54727 61.845H57.2369C104.231 61.845 113.263 61.7932 114.867 61.4827C125.426 59.4383 132.904 49.9669 132.309 39.331C132.128 35.9151 131.662 34.1813 130.084 30.9207C127.392 25.3569 122.657 21.3975 116.601 19.6637C114.402 19.0167 109.355 18.758 107.13 19.1461Z" fill="#E2EBED"/>
<path d="M0.900296 76.6731C-0.393609 77.8894 -0.264218 79.9338 1.18495 80.9171C1.83191 81.3571 4.0833 81.3829 46.8857 81.5123C83.4255 81.6158 92.1205 81.7193 92.9486 82.004C97.322 83.4532 100.919 86.5327 102.782 90.4144C104.076 93.1575 104.464 94.736 104.464 97.5308C104.464 104.363 100.143 110.392 93.6732 112.618C84.7194 115.723 75.248 110.548 72.8931 101.283C72.6085 100.17 72.3756 98.8248 72.3756 98.2813C72.3756 95.8488 70.7711 94.3478 68.8303 94.9948C67.3293 95.4865 66.8894 96.5216 67.0447 99.0059C67.407 104.803 70.4347 110.599 75.0151 114.248C81.614 119.501 90.2832 120.459 97.8396 116.732C104.231 113.601 108.45 108.011 109.666 101.05C110.08 98.6436 109.821 94.0632 109.148 91.6565C107.156 84.7212 101.721 79.235 94.5013 76.8025L92.6899 76.2073L47.1186 76.1297L1.54725 76.0779L0.900296 76.6731Z" fill="#E2EBED"/>
</svg>
