<svg width="198" height="107" viewBox="0 0 198 107" fill="none" xmlns="http://www.w3.org/2000/svg">
<path fill-rule="evenodd" clip-rule="evenodd" d="M142.233 7.29186C127.029 7.18417 111.825 7.29186 96.6207 7.60861C96.9628 8.06473 97.3873 8.38148 97.8877 8.55886C104.153 13.4685 108.904 19.5944 112.141 26.9304C116.19 24.0099 120.732 22.4262 125.762 22.1791C140.332 21.7547 154.903 21.7547 169.473 22.1791C171.279 23.8009 171.805 25.8091 171.057 28.1974C170.582 28.5965 170.056 28.9132 169.473 29.1476C162.505 29.3567 155.536 29.5721 148.568 29.7811C159.077 39.2519 162.03 50.7626 157.437 64.3069C157.095 64.3449 156.879 64.5539 156.803 64.9404C169.676 65.5739 182.561 65.7829 195.447 65.5739C197.968 67.7151 197.968 69.9323 195.447 72.2256C188.047 72.3333 180.654 72.6501 173.274 73.1759C179.102 81.6901 179.102 90.2423 173.274 98.8326C180.667 99.0417 188.054 99.2571 195.447 99.4661C197.981 101.791 197.981 104.11 195.447 106.435C138.432 106.859 81.4167 106.859 24.4017 106.435C6.28995 101.367 -1.6288 89.4378 0.645468 70.6419C4.9406 56.7365 14.3354 49.3499 28.8362 48.4694C28.2787 23.2814 40.1062 7.33621 64.3122 0.640111C90.4948 0.215666 116.684 0.215666 142.866 0.640111C145.514 3.14244 145.299 5.35969 142.233 7.29186Z" fill="#FDFEFE"/>
<path fill-rule="evenodd" clip-rule="evenodd" d="M154.269 0.3232C168.206 0.215505 182.143 0.3232 196.08 0.63995C198.614 2.74951 198.614 4.8654 196.08 6.97495C182.143 7.39939 168.206 7.39939 154.269 6.97495C151.78 4.7577 151.78 2.54045 154.269 0.3232Z" fill="#FDFDFE"/>
<path fill-rule="evenodd" clip-rule="evenodd" d="M142.233 7.29171C127.453 7.71615 112.667 8.13426 97.8878 8.55871C97.3874 8.38133 96.9629 8.06458 96.6208 7.60846C111.825 7.29171 127.029 7.18401 142.233 7.29171Z" fill="#5C88B7"/>
<path fill-rule="evenodd" clip-rule="evenodd" d="M182.143 21.8623C186.584 21.7546 191.019 21.8623 195.447 22.179C197.252 23.8008 197.778 25.809 197.031 28.1973C196.556 28.5964 196.03 28.9131 195.447 29.1475C191.012 29.572 186.578 29.572 182.143 29.1475C179.635 26.7529 179.635 24.3202 182.143 21.8623Z" fill="#F5F7FA"/>
<path fill-rule="evenodd" clip-rule="evenodd" d="M157.437 64.3068C170.107 64.7312 182.777 65.1493 195.447 65.5738C182.561 65.7828 169.676 65.5738 156.803 64.9403C156.879 64.5538 157.095 64.3448 157.437 64.3068Z" fill="#C7D7E6"/>
</svg>
